:SAMPLES-PER-SECOND 30
:FULLY-SPECIFIED
:DEGREES
520
root  -25.1622 30.5774 -9.01308 45.0108 -75.4234 -40.8188
RightUpLeg  -16.9442 13.4852 9.16302
RightLeg  42.6206 -2.2268 -1.8254
RightFoot  -20.2193 0.130144 1.10749
RightToes  -31.0097 -0.150935 -0.258922
Spine  6.72835 -4.62042 -0.777778
Spine1  13.2074 -9.49375 -1.20569
HEad  -35.4041 -44.7339 47.9576
LeftShoulder1  0 -2.42657e-020 -4.95415e-022
LeftArm  -130.678 52.1891 -93.0531
LeftForeArm  66.531 -29.5704 -5.67158
LeftHand  -0.124394 -1.31893 10.4602
RightShoulder  0 2.42657e-020 1.07489e-018
RightArm  -105.219 -33.211 57.2752
RightForeArm  104.338 78.9119 114.422
RightHand  -2.41916 9.10194 -29.363
LeftUpLeg  -32.7945 -4.24575 11.6952
LeftLeg  71.0168 -1.38704 -3.3341
LeftFoot  -10.6257 0.0609087 0.654959
LeftToes  -35.4783 1.33192e-006 1.13262e-007
521
root  -25.1964 30.526 -8.76218 49.4797 -77.1635 -46.4214
RightUpLeg  -16.7607 12.3658 8.20872
RightLeg  44.0401 0.122768 0.0736132
RightFoot  -19.5808 -0.0539695 0.0647886
RightToes  -34.8053 -0.178372 -0.283938
Spine  6.7715 -4.48842 -1.24444
Spine1  13.482 -9.03035 -2.45303
HEad  -28.531 -47.6552 48.1126
LeftShoulder1  0 -2.42657e-020 -4.95415e-022
LeftArm  -131.209 44.739 -97.038
LeftForeArm  65.1328 -23.7733 -4.38913
LeftHand  -0.265549 -3.75715 7.72712
RightShoulder  0 2.42657e-020 1.07489e-018
RightArm  -99.2844 -31.6986 72.2947
RightForeArm  34.4468 76.1393 46.0401
RightHand  -1.64408 9.15245 -19.9701
LeftUpLeg  -35.2583 -2.76826 11.6678
LeftLeg  76.9612 -1.88252 -6.26354
LeftFoot  -4.30328 0.0185711 0.494283
LeftToes  -34.5626 1.33192e-006 1.13262e-007
522
root  -25.3664 30.9058 -8.3495 54.4933 -78.3726 -52.5479
RightUpLeg  -13.694 10.3282 7.05961
RightLeg  40.179 3.09595 2.26555
RightFoot  -17.154 -0.214671 -1.04574
RightToes  -39.339 -0.213225 -0.311358
Spine  6.57537 -4.29032 -1.64483
Spine1  13.2246 -8.4784 -3.49785
HEad  -18.2201 -52.2538 45.6179
LeftShoulder1  0 -2.42657e-020 -4.95415e-022
LeftArm  -119.057 37.6151 -97.7436
LeftForeArm  63.6909 -20.2487 -3.66894
LeftHand  -0.324408 -8.41803 4.0393
RightShoulder  0 2.42657e-020 1.07489e-018
RightArm  -93.9859 -28.6933 80.6433
RightForeArm  4.02722 56.8716 15.7022
RightHand  -0.765895 8.45128 -9.97568
LeftUpLeg  -34.6194 -1.92654 12.3293
LeftLeg  78.0665 -3.16008 -11.1818
LeftFoot  -1.46821 0.00393477 0.307075
LeftToes  -30.0972 1.33192e-006 1.13262e-007
523
root  -25.53 31.5563 -7.84811 62.5638 -79.4953 -60.8964
RightUpLeg  -10.3878 11.5212 6.18157
RightLeg  34.1141 4.09052 2.38626
RightFoot  -13.2197 -0.163288 -1.03158
RightToes  -40.8355 -0.225192 -0.319793
Spine  6.0608 -3.81545 -1.8392
Spine1  12.2585 -7.44321 -4.00955
HEad  -8.86286 -55.9966 42.0367
LeftShoulder1  0 -2.42657e-020 -4.95415e-022
LeftArm  -91.7212 32.2909 -96.9832
LeftForeArm  52.5211 -20.1682 -3.677
LeftHand  -0.111154 -8.87435 1.06322
RightShoulder  0 2.42657e-020 1.07489e-018
RightArm  -94.4335 -24.3011 85.2212
RightForeArm  -0.647264 33.1812 6.60192
RightHand  -0.207813 5.28134 -4.13864
LeftUpLeg  -32.4662 -1.38094 13.773
LeftLeg  74.9627 -4.7134 -13.6509
LeftFoot  -0.736485 0.00123711 0.192473
LeftToes  -36.2926 1.33192e-006 1.13262e-007
524
root  -25.5513 32.2473 -7.22347 66.0316 -80.6411 -63.7289
RightUpLeg  -8.0558 13.5115 4.5439
RightLeg  28.0891 3.27943 1.4801
RightFoot  -8.51783 -0.0659704 -0.508349
RightToes  -43.1997 -0.244535 -0.332474
Spine  5.12256 -3.82096 -1.9872
Spine1  10.4252 -7.48406 -4.25993
HEad  0.472484 -57.8924 35.4475
LeftShoulder1  0 -2.42657e-020 -4.95415e-022
LeftArm  -69.4915 29.0754 -94.4106
LeftForeArm  44.0189 -25.0847 -4.71145
LeftHand  0.0137078 -8.75953 -0.549361
RightShoulder  0 2.42657e-020 1.07489e-018
RightArm  -115.733 -21.1933 88.1279
RightForeArm  15.6788 10.719 1.91258
RightHand  -0.514585 8.25019 -6.7612
LeftUpLeg  -30.7032 -3.16759 14.996
LeftLeg  68.353 -4.47623 -9.37781
LeftFoot  -3.64084 0.020479 0.644319
LeftToes  -32.0199 1.33192e-006 1.13262e-007
525
root  -25.4386 32.7571 -6.45319 61.644 -81.5081 -58.233
RightUpLeg  -7.74668 13.4633 1.98429
RightLeg  24.9168 2.88205 1.11496
RightFoot  -4.54888 -0.024144 -0.230377
RightToes  -44.6051 -0.256276 -0.339631
Spine  4.28128 -4.44535 -2.12545
Spine1  8.80639 -8.87347 -4.30738
HEad  6.14661 -57.2513 31.2155
LeftShoulder1  0 -2.42657e-020 -4.95415e-022
LeftArm  -53.3231 26.2853 -89.9149
LeftForeArm  39.8971 -32.5767 -6.45352
LeftHand  0.0558317 -8.73902 -1.10149
RightShoulder  0 2.42657e-020 1.07489e-018
RightArm  -117.985 -22.3872 93.1866
RightForeArm  17.6678 3.34405 0.597736
RightHand  -0.957958 6.88323 -15.4723
LeftUpLeg  -29.5328 -7.39551 16.3749
LeftLeg  59.1709 -2.32331 -3.38442
LeftFoot  -6.10153 0.0186125 0.349217
LeftToes  -23.5429 1.33192e-006 1.13262e-007
526
root  -25.257 33.0962 -5.60512 59.8968 -81.9575 -55.3256
RightUpLeg  -8.25633 12.7641 -0.478226
RightLeg  22.8113 3.96002 1.36943
RightFoot  -0.899725 -0.00331647 -0.0448689
RightToes  -47.6325 -0.282142 -0.354055
Spine  4.01661 -4.89462 -2.26646
Spine1  8.28471 -9.84936 -4.39366
HEad  4.21697 -55.1353 34.5479
LeftShoulder1  0 -2.42657e-020 -4.95415e-022
LeftArm  -40.9902 21.7813 -83.5636
LeftForeArm  38.2218 -40.1005 -8.5332
LeftHand  0.0185655 -8.26108 -0.627551
RightShoulder  0 2.42657e-020 1.07489e-018
RightArm  -102.547 -22.813 97.2183
RightForeArm  4.72778 -0.015587 0.00215679
RightHand  -0.624079 4.24012 -16.3935
LeftUpLeg  -27.7194 -12.367 18.7335
LeftLeg  47.6924 1.02598 0.984099
LeftFoot  -9.57579 -0.0282503 -0.337286
LeftToes  -12.3794 1.33192e-006 1.13262e-007
